<?xml version="1.0" encoding="utf-8"?>
<!-- Generator: Adobe Illustrator 24.1.0, SVG Export Plug-In . SVG Version: 6.00 Build 0)  -->
<svg version="1.1" id="Layer_1" xmlns="http://www.w3.org/2000/svg" xmlns:xlink="http://www.w3.org/1999/xlink" x="0px" y="0px"
	 viewBox="0 0 875.7 473.3" style="enable-background:new 0 0 875.7 473.3;" xml:space="preserve">
<style type="text/css">
	.st0{fill:#1B63AF;}
	.st1{opacity:0.75;fill:#214193;}
	.st2{fill:#231F20;stroke:#231F20;stroke-miterlimit:10;}
	.st3{fill:#25293B;}
	.st4{fill:none;}
	.st5{fill:#30A4D8;}
	.st6{fill:#214193;}
	.st7{fill:#0174A3;}
	.st8{fill:#E71E25;}
	.st9{fill:#7F141A;}
	.st10{fill:#FECF09;}
	.st11{fill:#F3B528;}
	.st12{fill:#FBF05F;}
	.st13{fill:#EDE31E;}
	.st14{opacity:0.75;fill:#FFFFFF;}
</style>
<g>
	<polygon class="st0" points="826.8,134.9 777.8,134.9 777.8,290.9 777.8,290.9 826.8,290.9 875.7,290.9 875.7,290.9 875.7,134.9 	
		"/>
	<polygon class="st0" points="564.4,134.9 613.3,219.7 613.3,219.7 662.3,290.9 711.2,219.7 711.2,219.7 760.2,134.9 662.3,134.9 	
		"/>
	<polygon class="st0" points="214.7,134.8 165.7,219.7 214.7,290.9 312.6,290.9 263.7,219.7 312.6,134.8 	"/>
	<polygon class="st0" points="97.9,134.8 49,134.8 0,134.8 0,134.8 0,134.8 0,290.9 49,290.9 97.9,290.9 97.9,290.9 146.9,219.7 	
		"/>
	<polygon class="st0" points="318.8,208.1 342.8,223.3 342.8,223.3 366.8,238.6 366.8,238.6 438.7,284.4 486.6,253.9 486.6,253.9 
		558.5,208.1 438.7,0 	"/>
	<polygon class="st0" points="516.7,259.3 438.7,308.9 403.6,286.4 403.6,286.5 361.1,259.3 361.2,259.4 319.4,232.7 438.7,407.8 
		558.5,232.7 516.6,259.4 	"/>
	<g>
		<polygon class="st1" points="761.6,315.9 761.6,314.7 760.9,315.9 		"/>
	</g>
	<line class="st2" x1="438.4" y1="431.3" x2="438.4" y2="473.3"/>
	<g>
		<g>
			<path class="st3" d="M231.9,452.7c0,10-5.4,15.7-15.2,15.7h-13.3V437h13.3C226.6,437,231.9,442.6,231.9,452.7z M223.6,452.7
				c0-6.3-2.3-9.5-7.7-9.5h-4.3v19h4.3C221.2,462.2,223.6,458.9,223.6,452.7z"/>
			<path class="st3" d="M264.3,462v6.3h-25.1V437h24.5v6.3h-16.3v6.4h12.9v5.9h-12.9v6.4H264.3z"/>
			<path class="st3" d="M290.4,468.4h-9.6L269.6,437h8.6l5.8,19l1.7,6.2l1.7-6.1l5.9-19.1h8.3L290.4,468.4z"/>
			<path class="st3" d="M321.1,468.8c-9.6,0-15.4-6-15.4-16.2c0-10.1,5.9-16.2,15.4-16.2c6.6,0,11.8,2.7,13.4,8.7l-7.2,2.9
				c-0.9-3.9-2.7-5.1-5.9-5.1c-4.6,0-7.3,3.3-7.3,9.8c0,6.4,2.5,9.8,7.1,9.8c3.5,0,5.5-1.6,6.2-5.1l7.4,2.1
				C333,465.9,327.8,468.8,321.1,468.8z"/>
			<path class="st3" d="M371.5,452.7c0,10.1-5.8,16.2-15.4,16.2s-15.4-6-15.4-16.2c0-10.1,5.9-16.2,15.4-16.2
				S371.5,442.5,371.5,452.7z M349.1,452.7c0,6.4,2.5,9.8,7,9.8c4.5,0,7-3.3,7-9.8s-2.5-9.8-7-9.8
				C351.6,442.9,349.1,446.2,349.1,452.7z"/>
			<path class="st3" d="M408,468.4H399l-9.8-17l-2.4-4.8h0l0.2,5.9v15.8h-7.2V437h9.1l9.8,17l2.4,4.8h0l-0.2-5.9V437h7.2V468.4z"/>
		</g>
	</g>
	<g>
		<g>
			<path class="st3" d="M468.8,437H484c7.8,0,11.3,3,11.3,8.5c0,3.6-2.1,6.4-6.4,7v0c4.8,0.7,7.2,3.6,7.2,7.4
				c0,5.4-3.9,8.5-11.4,8.5h-16V437z M482.6,449.8c3,0,4.4-1.1,4.4-3.4s-1.5-3.4-4.4-3.4h-5.9v6.9H482.6z M483.4,462.6
				c2.9,0,4.4-1.2,4.4-3.5c0-2.2-1.5-3.4-4.4-3.4h-6.7v6.9H483.4z"/>
			<path class="st3" d="M534.3,452.7c0,10.1-5.8,16.2-15.4,16.2s-15.4-6-15.4-16.2c0-10.1,5.9-16.2,15.4-16.2
				S534.3,442.5,534.3,452.7z M511.9,452.7c0,6.4,2.5,9.8,7,9.8c4.5,0,7-3.3,7-9.8s-2.5-9.8-7-9.8
				C514.4,442.9,511.9,446.2,511.9,452.7z"/>
			<path class="st3" d="M571.7,451.4v17h-5.7l-0.2-3.7c-1.7,2.6-4.7,4.1-9,4.1c-8.5,0-14.6-5.7-14.6-16.1c0-10.1,6-16.2,15.7-16.2
				c7.1,0,11.3,2.4,13.8,8l-7.6,3c-0.8-3.2-3-4.6-6-4.6c-4.8,0-7.5,3.3-7.5,9.8c0,6.7,2.6,9.9,7.7,9.9c3.7,0,6.5-1.7,6.5-5.2v-0.5
				h-7.8v-5.5H571.7z"/>
			<path class="st3" d="M610.9,452.7c0,10.1-5.8,16.2-15.4,16.2c-9.6,0-15.4-6-15.4-16.2c0-10.1,5.9-16.2,15.4-16.2
				C605.1,436.5,610.9,442.5,610.9,452.7z M588.5,452.7c0,6.4,2.5,9.8,7,9.8c4.5,0,7-3.3,7-9.8s-2.5-9.8-7-9.8
				C591,442.9,588.5,446.2,588.5,452.7z"/>
			<path class="st3" d="M645.2,443.3H635v25.1h-8.2v-25.1h-10.3V437h28.7V443.3z"/>
			<path class="st3" d="M667.2,461.3h-10.8l-2.2,7.1h-8.2l11-31.4h9.8l11,31.4h-8.4L667.2,461.3z M665.5,455.7l-2.3-7.5l-1.4-4.9
				h-0.1l-1.3,4.9l-2.3,7.6H665.5z"/>
		</g>
	</g>
	<g>
		<polygon class="st4" points="438.4,354 438.4,354 438.4,354 438.4,354 		"/>
		<g>
			<rect x="777.8" y="134.9" class="st5" width="49" height="156"/>
			<rect x="826.8" y="134.9" class="st3" width="49" height="156"/>
			<polygon class="st0" points="875.7,134.9 777.8,134.9 826.8,219.7 			"/>
			<polygon class="st6" points="777.8,290.9 875.7,290.9 826.8,219.7 			"/>
		</g>
		<polygon class="st7" points="760.9,315.9 761.6,315.9 761.6,314.7 		"/>
		<g>
			<polygon class="st5" points="613.3,219.7 662.3,134.9 564.4,134.9 			"/>
			<polygon class="st6" points="711.2,219.7 760.2,134.9 662.3,134.9 			"/>
			<polygon class="st0" points="662.3,134.9 613.3,219.7 711.2,219.7 			"/>
			<polygon class="st3" points="662.3,290.9 711.2,219.7 613.3,219.7 			"/>
		</g>
		<g>
			<polygon class="st0" points="263.7,219.7 312.6,134.8 214.7,134.8 			"/>
			<polygon class="st5" points="214.7,134.8 165.7,219.7 263.7,219.7 			"/>
			<polygon class="st6" points="214.7,290.9 263.7,219.7 165.7,219.7 			"/>
			<polygon class="st3" points="263.7,219.7 214.7,290.9 312.6,290.9 			"/>
		</g>
		<g>
			<rect x="0" y="134.8" class="st5" width="49" height="156"/>
			<polygon class="st0" points="49,219.7 97.9,134.8 0,134.8 			"/>
			<polygon class="st6" points="97.9,134.8 49,219.7 146.9,219.7 			"/>
			<polygon class="st3" points="97.9,290.9 146.9,219.7 49,219.7 			"/>
			<polygon class="st0" points="49,219.7 0,290.9 97.9,290.9 			"/>
		</g>
		<g>
			<polygon class="st5" points="318.8,208.1 438.7,284.4 438.7,0 			"/>
			<polygon class="st6" points="558.5,208.1 438.7,284.4 438.7,0 			"/>
			<polygon class="st8" points="342.8,223.3 438.7,284.4 438.7,56.9 			"/>
			<polygon class="st9" points="534.6,223.3 438.7,284.4 438.7,56.9 			"/>
			<polygon class="st10" points="366.8,238.6 438.7,284.4 438.7,113.8 			"/>
			<polygon class="st11" points="510.6,238.6 438.7,284.4 438.7,113.8 			"/>
			<polygon class="st12" points="390.7,253.9 438.7,284.4 438.7,170.6 			"/>
			<polygon class="st13" points="486.6,253.9 438.7,284.4 438.7,170.6 			"/>
			<path class="st12" d="M438.7,284.4"/>
			<polygon class="st6" points="558.5,232.7 438.7,407.8 438.7,309 			"/>
			<polygon class="st5" points="319.4,232.7 438.7,407.8 438.7,309 			"/>
			<polygon class="st9" points="516.7,259.3 438.7,373.2 438.7,308.9 			"/>
			<polygon class="st8" points="361.1,259.3 438.7,373.2 438.7,308.9 			"/>
			<polygon class="st11" points="474,286.4 438.7,338 438.7,308.9 			"/>
			<polygon class="st10" points="403.6,286.4 438.7,338 438.7,308.9 			"/>
			<polygon class="st14" points="438.7,284.4 455.1,256 422.3,256 			"/>
			<polygon class="st14" points="438.7,170.6 455.1,142.2 422.3,142.2 			"/>
			<polygon class="st14" points="455.1,199.1 471.4,170.6 438.7,170.6 			"/>
			<polygon class="st14" points="487.8,199.1 504.2,170.6 471.4,170.6 			"/>
			<polygon class="st14" points="471.4,227.5 487.8,199.1 455.1,199.1 			"/>
			<polygon class="st14" points="455.1,256 471.4,227.5 438.7,227.5 			"/>
			<polygon class="st14" points="422.3,256 438.7,227.5 405.9,227.5 			"/>
			<polygon class="st14" points="389.5,199.1 373.1,170.6 405.9,170.6 			"/>
			<polygon class="st14" points="405.9,227.5 389.5,199.1 422.3,199.1 			"/>
			<polygon class="st14" points="422.3,199.1 405.9,170.6 438.7,170.6 			"/>
			<polygon class="st14" points="455.1,142.2 471.4,113.8 438.7,113.8 			"/>
			<polygon class="st14" points="422.3,142.2 405.9,113.8 438.7,113.8 			"/>
		</g>
	</g>
</g>
</svg>
