<svg width="162" height="38" viewBox="0 0 162 38" fill="none" xmlns="http://www.w3.org/2000/svg">
<path d="M42.5356 11.3538H49.152C54.1984 11.3538 57.6302 14.5883 57.6302 19.3261C57.6302 24.0638 54.1989 27.2983 49.152 27.2983H42.5356V11.3538ZM49.0172 25.3163C52.8974 25.3163 55.3872 22.902 55.3872 19.3255C55.3872 15.7495 52.8974 13.3347 49.0172 13.3347H44.7781V25.3157H49.0172V25.3163Z" fill="#2F354B"/>
<path d="M76.9425 25.3161V27.2976H65.5488V11.353H76.6284V13.3346H67.7918V18.2317H75.6642V20.1676H67.7918V25.315H76.9425V25.3161Z" fill="#2F354B"/>
<path d="M98.4763 11.3538L91.5909 27.2983H89.3701L82.4619 11.3538H84.8841L90.5363 24.4509L96.2328 11.3538H98.4763Z" fill="#2F354B"/>
<path d="M103.524 19.3254C103.524 14.6108 107.068 11.1711 111.846 11.1711C114.268 11.1711 116.376 12.014 117.812 13.6535L116.354 15.0886C115.143 13.7905 113.663 13.1983 111.936 13.1983C108.392 13.1983 105.767 15.7951 105.767 19.3254C105.767 22.8563 108.392 25.4531 111.936 25.4531C113.663 25.4531 115.143 24.8378 116.354 23.5397L117.812 24.9747C116.377 26.6143 114.268 27.4802 111.823 27.4802C107.068 27.4797 103.524 24.0412 103.524 19.3254Z" fill="#2F354B"/>
<path d="M123.891 19.3254C123.891 14.6564 127.435 11.1711 132.257 11.1711C137.035 11.1711 140.578 14.6328 140.578 19.3254C140.578 24.0181 137.035 27.4797 132.257 27.4797C127.435 27.4797 123.891 23.9955 123.891 19.3254ZM138.335 19.3254C138.335 15.7951 135.734 13.1983 132.257 13.1983C128.736 13.1983 126.134 15.7951 126.134 19.3254C126.134 22.8563 128.736 25.4531 132.257 25.4531C135.734 25.4531 138.335 22.8563 138.335 19.3254Z" fill="#2F354B"/>
<path d="M162 11.3536V27.2982H160.161L150.741 15.4079V27.2976H148.498V11.353H150.337L159.757 23.2427V11.3536H162Z" fill="#2F354B"/>
<path d="M21.9999 19.3882L10.9971 0L0 19.3882L11.0028 26.5011L21.9999 19.3882ZM11.7962 12.8947V4.6599L18.7451 16.9045L11.7962 12.8947ZM19.396 19.1474L11.7962 24.0632V14.7622L19.396 19.1474ZM10.1976 12.8947L3.25602 16.9004L10.1976 4.66195V12.8947ZM10.1976 14.7622V24.0563L2.60144 19.1453L10.1976 14.7622Z" fill="#2F354B"/>
<path d="M10.997 28.7992L0.00634766 21.6863L10.9974 38L22.0002 21.6863L10.997 28.7992ZM10.1383 30.1684L10.1979 30.2072V33.9387L5.74062 27.3225L10.1383 30.1684ZM16.2631 27.3196L11.7965 33.9419V30.2068L11.8557 30.1684L16.2631 27.3196Z" fill="#2F354B"/>
</svg>
